<mxfile host="app.diagrams.net" modified="2024-06-15T16:14:00.383Z" agent="Mozilla/5.0 (Windows NT 10.0; Win64; x64) AppleWebKit/537.36 (KHTML, like Gecko) Chrome/125.0.0.0 Safari/537.36 Edg/125.0.0.0" etag="fhUUcAnmJGJhGMvhh4lp" version="24.5.4" type="github">
  <diagram id="C5RBs43oDa-KdzZeNtuy" name="Page-1">
    <mxGraphModel dx="1511" dy="407" grid="1" gridSize="10" guides="1" tooltips="1" connect="1" arrows="1" fold="1" page="1" pageScale="1" pageWidth="827" pageHeight="1169" math="0" shadow="0">
      <root>
        <mxCell id="WIyWlLk6GJQsqaUBKTNV-0" />
        <mxCell id="WIyWlLk6GJQsqaUBKTNV-1" parent="WIyWlLk6GJQsqaUBKTNV-0" />
        <mxCell id="GjXYhkqQ-jPX18HEnohe-6" value="" style="edgeStyle=orthogonalEdgeStyle;rounded=0;orthogonalLoop=1;jettySize=auto;html=1;" edge="1" parent="WIyWlLk6GJQsqaUBKTNV-1" source="GjXYhkqQ-jPX18HEnohe-0" target="GjXYhkqQ-jPX18HEnohe-5">
          <mxGeometry relative="1" as="geometry" />
        </mxCell>
        <mxCell id="GjXYhkqQ-jPX18HEnohe-0" value="실행&lt;div&gt;로그인 페이지&lt;/div&gt;" style="rounded=1;whiteSpace=wrap;html=1;" vertex="1" parent="WIyWlLk6GJQsqaUBKTNV-1">
          <mxGeometry x="-360" y="60" width="120" height="60" as="geometry" />
        </mxCell>
        <mxCell id="GjXYhkqQ-jPX18HEnohe-13" value="" style="edgeStyle=orthogonalEdgeStyle;rounded=0;orthogonalLoop=1;jettySize=auto;html=1;" edge="1" parent="WIyWlLk6GJQsqaUBKTNV-1" source="GjXYhkqQ-jPX18HEnohe-5" target="GjXYhkqQ-jPX18HEnohe-12">
          <mxGeometry relative="1" as="geometry" />
        </mxCell>
        <mxCell id="GjXYhkqQ-jPX18HEnohe-5" value="로그인 정보 입력" style="shape=parallelogram;perimeter=parallelogramPerimeter;whiteSpace=wrap;html=1;fixedSize=1;" vertex="1" parent="WIyWlLk6GJQsqaUBKTNV-1">
          <mxGeometry x="-360" y="180" width="120" height="60" as="geometry" />
        </mxCell>
        <mxCell id="GjXYhkqQ-jPX18HEnohe-15" value="" style="edgeStyle=orthogonalEdgeStyle;rounded=0;orthogonalLoop=1;jettySize=auto;html=1;" edge="1" parent="WIyWlLk6GJQsqaUBKTNV-1" source="GjXYhkqQ-jPX18HEnohe-12" target="GjXYhkqQ-jPX18HEnohe-14">
          <mxGeometry relative="1" as="geometry" />
        </mxCell>
        <mxCell id="GjXYhkqQ-jPX18HEnohe-24" value="" style="edgeStyle=orthogonalEdgeStyle;rounded=0;orthogonalLoop=1;jettySize=auto;html=1;" edge="1" parent="WIyWlLk6GJQsqaUBKTNV-1" source="GjXYhkqQ-jPX18HEnohe-12" target="GjXYhkqQ-jPX18HEnohe-23">
          <mxGeometry relative="1" as="geometry" />
        </mxCell>
        <mxCell id="GjXYhkqQ-jPX18HEnohe-12" value="정보&lt;div&gt;확인&lt;/div&gt;" style="rhombus;whiteSpace=wrap;html=1;" vertex="1" parent="WIyWlLk6GJQsqaUBKTNV-1">
          <mxGeometry x="-180" y="170" width="80" height="80" as="geometry" />
        </mxCell>
        <mxCell id="GjXYhkqQ-jPX18HEnohe-19" style="edgeStyle=orthogonalEdgeStyle;rounded=0;orthogonalLoop=1;jettySize=auto;html=1;" edge="1" parent="WIyWlLk6GJQsqaUBKTNV-1" source="GjXYhkqQ-jPX18HEnohe-14" target="GjXYhkqQ-jPX18HEnohe-0">
          <mxGeometry relative="1" as="geometry">
            <Array as="points">
              <mxPoint x="-290" y="70" />
            </Array>
          </mxGeometry>
        </mxCell>
        <mxCell id="GjXYhkqQ-jPX18HEnohe-14" value="&lt;div&gt;로그인 창으로 이동&lt;/div&gt;" style="whiteSpace=wrap;html=1;" vertex="1" parent="WIyWlLk6GJQsqaUBKTNV-1">
          <mxGeometry x="-200" y="60" width="120" height="60" as="geometry" />
        </mxCell>
        <mxCell id="GjXYhkqQ-jPX18HEnohe-20" value="로그인&lt;div&gt;실패&lt;/div&gt;" style="text;html=1;align=center;verticalAlign=middle;whiteSpace=wrap;rounded=0;strokeColor=default;" vertex="1" parent="WIyWlLk6GJQsqaUBKTNV-1">
          <mxGeometry x="-200" y="140" width="60" height="30" as="geometry" />
        </mxCell>
        <mxCell id="GjXYhkqQ-jPX18HEnohe-30" value="" style="edgeStyle=orthogonalEdgeStyle;rounded=0;orthogonalLoop=1;jettySize=auto;html=1;" edge="1" parent="WIyWlLk6GJQsqaUBKTNV-1" source="GjXYhkqQ-jPX18HEnohe-23" target="GjXYhkqQ-jPX18HEnohe-27">
          <mxGeometry relative="1" as="geometry">
            <Array as="points">
              <mxPoint x="100" y="300" />
              <mxPoint x="-300" y="300" />
            </Array>
          </mxGeometry>
        </mxCell>
        <mxCell id="GjXYhkqQ-jPX18HEnohe-31" value="" style="edgeStyle=orthogonalEdgeStyle;rounded=0;orthogonalLoop=1;jettySize=auto;html=1;entryX=0.5;entryY=0;entryDx=0;entryDy=0;" edge="1" parent="WIyWlLk6GJQsqaUBKTNV-1" source="GjXYhkqQ-jPX18HEnohe-23" target="GjXYhkqQ-jPX18HEnohe-26">
          <mxGeometry relative="1" as="geometry">
            <Array as="points">
              <mxPoint x="270" y="300" />
            </Array>
          </mxGeometry>
        </mxCell>
        <mxCell id="GjXYhkqQ-jPX18HEnohe-23" value="관라자 페이지" style="rounded=0;whiteSpace=wrap;html=1;" vertex="1" parent="WIyWlLk6GJQsqaUBKTNV-1">
          <mxGeometry x="-46" y="260" width="120" height="60" as="geometry" />
        </mxCell>
        <mxCell id="GjXYhkqQ-jPX18HEnohe-25" value="로그인&lt;div&gt;성공&lt;/div&gt;" style="text;html=1;align=center;verticalAlign=middle;whiteSpace=wrap;rounded=0;strokeColor=default;" vertex="1" parent="WIyWlLk6GJQsqaUBKTNV-1">
          <mxGeometry x="-70" y="180" width="60" height="30" as="geometry" />
        </mxCell>
        <mxCell id="GjXYhkqQ-jPX18HEnohe-26" value="부서관리" style="rounded=0;whiteSpace=wrap;html=1;" vertex="1" parent="WIyWlLk6GJQsqaUBKTNV-1">
          <mxGeometry x="210" y="340" width="120" height="60" as="geometry" />
        </mxCell>
        <mxCell id="GjXYhkqQ-jPX18HEnohe-34" value="" style="edgeStyle=orthogonalEdgeStyle;rounded=0;orthogonalLoop=1;jettySize=auto;html=1;" edge="1" parent="WIyWlLk6GJQsqaUBKTNV-1" source="GjXYhkqQ-jPX18HEnohe-27" target="GjXYhkqQ-jPX18HEnohe-33">
          <mxGeometry relative="1" as="geometry">
            <Array as="points">
              <mxPoint x="-220" y="440" />
              <mxPoint x="-460" y="440" />
            </Array>
          </mxGeometry>
        </mxCell>
        <mxCell id="GjXYhkqQ-jPX18HEnohe-36" value="" style="edgeStyle=orthogonalEdgeStyle;rounded=0;orthogonalLoop=1;jettySize=auto;html=1;" edge="1" parent="WIyWlLk6GJQsqaUBKTNV-1" source="GjXYhkqQ-jPX18HEnohe-27" target="GjXYhkqQ-jPX18HEnohe-35">
          <mxGeometry relative="1" as="geometry">
            <Array as="points">
              <mxPoint x="-220" y="440" />
              <mxPoint x="-300" y="440" />
            </Array>
          </mxGeometry>
        </mxCell>
        <mxCell id="GjXYhkqQ-jPX18HEnohe-38" value="" style="edgeStyle=orthogonalEdgeStyle;rounded=0;orthogonalLoop=1;jettySize=auto;html=1;" edge="1" parent="WIyWlLk6GJQsqaUBKTNV-1" source="GjXYhkqQ-jPX18HEnohe-27" target="GjXYhkqQ-jPX18HEnohe-37">
          <mxGeometry relative="1" as="geometry">
            <Array as="points">
              <mxPoint x="-220" y="440" />
              <mxPoint x="-140" y="440" />
            </Array>
          </mxGeometry>
        </mxCell>
        <mxCell id="GjXYhkqQ-jPX18HEnohe-40" value="" style="edgeStyle=orthogonalEdgeStyle;rounded=0;orthogonalLoop=1;jettySize=auto;html=1;" edge="1" parent="WIyWlLk6GJQsqaUBKTNV-1" source="GjXYhkqQ-jPX18HEnohe-27" target="GjXYhkqQ-jPX18HEnohe-39">
          <mxGeometry relative="1" as="geometry">
            <Array as="points">
              <mxPoint x="-220" y="440" />
              <mxPoint x="20" y="440" />
            </Array>
          </mxGeometry>
        </mxCell>
        <mxCell id="GjXYhkqQ-jPX18HEnohe-27" value="사원관리" style="rounded=0;whiteSpace=wrap;html=1;" vertex="1" parent="WIyWlLk6GJQsqaUBKTNV-1">
          <mxGeometry x="-280" y="340" width="120" height="60" as="geometry" />
        </mxCell>
        <mxCell id="GjXYhkqQ-jPX18HEnohe-42" value="" style="edgeStyle=orthogonalEdgeStyle;rounded=0;orthogonalLoop=1;jettySize=auto;html=1;" edge="1" parent="WIyWlLk6GJQsqaUBKTNV-1" source="GjXYhkqQ-jPX18HEnohe-33" target="GjXYhkqQ-jPX18HEnohe-41">
          <mxGeometry relative="1" as="geometry" />
        </mxCell>
        <mxCell id="GjXYhkqQ-jPX18HEnohe-33" value="사원정보&lt;div&gt;등록&lt;/div&gt;" style="rounded=0;whiteSpace=wrap;html=1;" vertex="1" parent="WIyWlLk6GJQsqaUBKTNV-1">
          <mxGeometry x="-520" y="470" width="120" height="60" as="geometry" />
        </mxCell>
        <mxCell id="GjXYhkqQ-jPX18HEnohe-46" value="" style="edgeStyle=orthogonalEdgeStyle;rounded=0;orthogonalLoop=1;jettySize=auto;html=1;" edge="1" parent="WIyWlLk6GJQsqaUBKTNV-1" source="GjXYhkqQ-jPX18HEnohe-35" target="GjXYhkqQ-jPX18HEnohe-43">
          <mxGeometry relative="1" as="geometry" />
        </mxCell>
        <mxCell id="GjXYhkqQ-jPX18HEnohe-35" value="사원정보&lt;div&gt;수정&lt;/div&gt;" style="rounded=0;whiteSpace=wrap;html=1;" vertex="1" parent="WIyWlLk6GJQsqaUBKTNV-1">
          <mxGeometry x="-360" y="470" width="120" height="60" as="geometry" />
        </mxCell>
        <mxCell id="GjXYhkqQ-jPX18HEnohe-47" value="" style="edgeStyle=orthogonalEdgeStyle;rounded=0;orthogonalLoop=1;jettySize=auto;html=1;" edge="1" parent="WIyWlLk6GJQsqaUBKTNV-1" source="GjXYhkqQ-jPX18HEnohe-37" target="GjXYhkqQ-jPX18HEnohe-44">
          <mxGeometry relative="1" as="geometry" />
        </mxCell>
        <mxCell id="GjXYhkqQ-jPX18HEnohe-37" value="사원정보&lt;div&gt;검색&lt;/div&gt;" style="rounded=0;whiteSpace=wrap;html=1;" vertex="1" parent="WIyWlLk6GJQsqaUBKTNV-1">
          <mxGeometry x="-200" y="470" width="120" height="60" as="geometry" />
        </mxCell>
        <mxCell id="GjXYhkqQ-jPX18HEnohe-48" value="" style="edgeStyle=orthogonalEdgeStyle;rounded=0;orthogonalLoop=1;jettySize=auto;html=1;" edge="1" parent="WIyWlLk6GJQsqaUBKTNV-1" source="GjXYhkqQ-jPX18HEnohe-39" target="GjXYhkqQ-jPX18HEnohe-45">
          <mxGeometry relative="1" as="geometry" />
        </mxCell>
        <mxCell id="GjXYhkqQ-jPX18HEnohe-39" value="사원정보&lt;div&gt;삭제&lt;/div&gt;" style="rounded=0;whiteSpace=wrap;html=1;" vertex="1" parent="WIyWlLk6GJQsqaUBKTNV-1">
          <mxGeometry x="-40" y="470" width="120" height="60" as="geometry" />
        </mxCell>
        <mxCell id="GjXYhkqQ-jPX18HEnohe-41" value="사원정보&lt;div&gt;입력&lt;/div&gt;" style="rhombus;whiteSpace=wrap;html=1;" vertex="1" parent="WIyWlLk6GJQsqaUBKTNV-1">
          <mxGeometry x="-520" y="570" width="120" height="60" as="geometry" />
        </mxCell>
        <mxCell id="GjXYhkqQ-jPX18HEnohe-43" value="사원정보&lt;div&gt;입력&lt;/div&gt;" style="rhombus;whiteSpace=wrap;html=1;" vertex="1" parent="WIyWlLk6GJQsqaUBKTNV-1">
          <mxGeometry x="-360" y="570" width="120" height="60" as="geometry" />
        </mxCell>
        <mxCell id="GjXYhkqQ-jPX18HEnohe-44" value="사원정보&lt;div&gt;입력&lt;/div&gt;" style="rhombus;whiteSpace=wrap;html=1;" vertex="1" parent="WIyWlLk6GJQsqaUBKTNV-1">
          <mxGeometry x="-200" y="570" width="120" height="60" as="geometry" />
        </mxCell>
        <mxCell id="GjXYhkqQ-jPX18HEnohe-45" value="사원정보&lt;div&gt;입력&lt;/div&gt;" style="rhombus;whiteSpace=wrap;html=1;" vertex="1" parent="WIyWlLk6GJQsqaUBKTNV-1">
          <mxGeometry x="-40" y="570" width="120" height="60" as="geometry" />
        </mxCell>
      </root>
    </mxGraphModel>
  </diagram>
</mxfile>
